<svg width="99" height="99" viewBox="0 0 99 99" fill="none" xmlns="http://www.w3.org/2000/svg">
<g id="Ellipse 1094">
<mask id="path-1-inside-1_2551_65806" fill="white">
<path d="M49.5 4.95C49.5 2.21619 51.7218 -0.0256468 54.4419 0.247278C62.3414 1.03987 69.9604 3.72422 76.6403 8.10369C84.7046 13.3908 91.049 20.9183 94.8943 29.7614C98.7395 38.6046 99.918 48.3783 98.2852 57.882C96.6523 67.3857 92.2791 76.2056 85.7027 83.2581C79.1264 90.3107 70.6333 95.2889 61.2668 97.5811C51.9002 99.8734 42.0681 99.3799 32.9781 96.1613C23.8881 92.9427 15.9362 87.1392 10.099 79.4635C5.264 73.1057 2.0544 65.6926 0.71235 57.8677C0.250224 55.1732 2.33151 52.8004 5.05866 52.6096C7.7858 52.4188 10.1201 54.4856 10.6494 57.1677C11.814 63.0684 14.3123 68.6489 17.9792 73.4708C22.6489 79.6113 29.0105 84.2542 36.2825 86.829C43.5544 89.4039 51.4202 89.7987 58.9134 87.9649C66.4067 86.1311 73.2011 82.1486 78.4622 76.5065C83.7233 70.8645 87.2218 63.8086 88.5281 56.2056C89.8344 48.6026 88.8916 40.7837 85.8154 33.7091C82.7392 26.6346 77.6637 20.6127 71.2122 16.3829C66.1461 13.0615 60.4048 10.9588 54.4372 10.209C51.7247 9.86811 49.5 7.68381 49.5 4.95Z"/>
</mask>
<path d="M49.5 4.95C49.5 2.21619 51.7218 -0.0256468 54.4419 0.247278C62.3414 1.03987 69.9604 3.72422 76.6403 8.10369C84.7046 13.3908 91.049 20.9183 94.8943 29.7614C98.7395 38.6046 99.918 48.3783 98.2852 57.882C96.6523 67.3857 92.2791 76.2056 85.7027 83.2581C79.1264 90.3107 70.6333 95.2889 61.2668 97.5811C51.9002 99.8734 42.0681 99.3799 32.9781 96.1613C23.8881 92.9427 15.9362 87.1392 10.099 79.4635C5.264 73.1057 2.0544 65.6926 0.71235 57.8677C0.250224 55.1732 2.33151 52.8004 5.05866 52.6096C7.7858 52.4188 10.1201 54.4856 10.6494 57.1677C11.814 63.0684 14.3123 68.6489 17.9792 73.4708C22.6489 79.6113 29.0105 84.2542 36.2825 86.829C43.5544 89.4039 51.4202 89.7987 58.9134 87.9649C66.4067 86.1311 73.2011 82.1486 78.4622 76.5065C83.7233 70.8645 87.2218 63.8086 88.5281 56.2056C89.8344 48.6026 88.8916 40.7837 85.8154 33.7091C82.7392 26.6346 77.6637 20.6127 71.2122 16.3829C66.1461 13.0615 60.4048 10.9588 54.4372 10.209C51.7247 9.86811 49.5 7.68381 49.5 4.95Z" fill="#D9D9D9" stroke="#378760" stroke-width="40" stroke-linecap="round" mask="url(#path-1-inside-1_2551_65806)"/>
</g>
</svg>
