<svg id="SvgjsSvg1011" width="288" height="288" xmlns="http://www.w3.org/2000/svg" version="1.1" xmlns:xlink="http://www.w3.org/1999/xlink" xmlns:svgjs="http://svgjs.com/svgjs"><defs id="SvgjsDefs1012"></defs><g id="SvgjsG1013"><svg xmlns="http://www.w3.org/2000/svg" viewBox="0 0 32 32" width="288" height="288"><path d="M16,30A14,14,0,1,1,30,16,14,14,0,0,1,16,30ZM16,4A12,12,0,1,0,28,16,12,12,0,0,0,16,4ZM14.66,20.75l9-8-1.32-1.5L14,18.63,9.71,14.29,8.29,15.71l5,5A1,1,0,0,0,14,21,1,1,0,0,0,14.66,20.75Z" data-name="58  Tick, Basic, Essential, Select" fill="#ffffff" class="color000 svgShape"></path></svg></g></svg>